<?xml version="1.0" encoding="UTF-8"?>
<svg width="1778px" height="786px" viewBox="0 0 1778 786" version="1.1" xmlns="http://www.w3.org/2000/svg" xmlns:xlink="http://www.w3.org/1999/xlink">
    <!-- Generator: Sketch 52.6 (67491) - http://www.bohemiancoding.com/sketch -->
    <title>Group 11</title>
    <desc>Created with Sketch.</desc>
    <defs>
        <linearGradient x1="97.6732206%" y1="5.20744951%" x2="3.72264023%" y2="100%" id="linearGradient-1">
            <stop stop-color="#2D2BB0" offset="0%"></stop>
            <stop stop-color="#113255" offset="100%"></stop>
        </linearGradient>
        <path d="M1135.93889,11.0220691 C982.130622,49.7918974 883.431671,102.463196 698.072396,44.8822954 C512.713122,-12.6986051 429.971093,73.0558416 350.650755,107.901199 C223.051199,163.955577 194.552244,144.657765 101.562337,113 C-11.0790936,74.6520107 -31.8135067,252.897095 50.3715689,402.765277 C90.3516836,475.670814 175.526144,534.947935 244.646634,573.134806 C417.620076,668.697132 698.210204,659.374839 1052.62008,562.270307 C1310.80164,491.531307 1451.32655,583.187102 1557.62008,566.80006 C1653.61974,552 1702.42744,413.095984 1670.39496,302.320299 C1616.28207,115.185527 1347.41205,-42.2831132 1135.93889,11.0220691 Z" id="path-2"></path>
        <filter x="-4.5%" y="-11.6%" width="109.0%" height="123.8%" filterUnits="objectBoundingBox" id="filter-3">
            <feOffset dx="0" dy="2" in="SourceAlpha" result="shadowOffsetOuter1"></feOffset>
            <feGaussianBlur stdDeviation="25" in="shadowOffsetOuter1" result="shadowBlurOuter1"></feGaussianBlur>
            <feColorMatrix values="0 0 0 0 0.0431372549   0 0 0 0 0.133333333   0 0 0 0 0.223529412  0 0 0 0.422752491 0" type="matrix" in="shadowBlurOuter1"></feColorMatrix>
        </filter>
    </defs>
    <g id="final-2" stroke="none" stroke-width="1" fill="none" fill-rule="evenodd">
        <g id="landing-slidesgo" transform="translate(-369.000000, -111.000000)">
            <g id="Group-11" transform="translate(418.000000, 158.000000)">
                <g id="Path-3" transform="translate(840.310038, 320.331089) scale(-1, 1) translate(-840.310038, -320.331089) ">
                    <use fill="black" fill-opacity="1" filter="url(#filter-3)" xlink:href="#path-2"></use>
                    <use fill="url(#linearGradient-1)" fill-rule="evenodd" xlink:href="#path-2"></use>
                </g>
                <g id="estrellas" transform="translate(221.000000, 25.000000)">
                    <path d="M530.538741,70.920753 C530.862877,70.8935306 531.170553,70.7523544 531.411122,70.536475 C531.469365,70.5073534 531.528242,70.4775987 531.582053,70.4364487 C532.820986,69.4786025 531.020513,67.6699002 529.868312,68.052279 C528.343229,68.5581079 528.992133,71.0492677 530.538741,70.920753 Z" id="Fill-1" fill="#C7EBFF"></path>
                    <path d="M699.780191,711.598233 C699.781129,711.979033 699.770624,712.363973 699.6762,712.733007 C699.6532,712.823307 699.3462,713.719644 699.2362,713.696699 C698.4742,713.544966 698.4222,712.703401 698.3332,712.235618 C698.295114,712.034145 698.269725,711.831727 698.252858,711.628783 C697.838232,711.630439 697.418149,711.622401 697.016003,711.523947 C696.920915,711.501947 695.977045,711.194947 696.000427,711.084947 C696.160207,710.322947 697.04718,710.269947 697.539769,710.181947 C697.765906,710.141351 697.99311,710.115181 698.220901,710.09838 C698.220807,710.048391 698.220594,709.998433 698.2202,709.948514 C698.2182,709.620622 698.2372,709.287548 698.3202,708.966318 C698.3432,708.876018 698.6492,707.9782 698.7602,708.000405 C699.5132,708.150658 699.6222,708.945593 699.6832,709.417077 C699.71117,709.634169 699.731997,709.85179 699.746922,710.0697 C699.814047,710.069657 699.881129,710.069449 699.948157,710.068947 C700.292658,710.066947 700.643394,710.085947 700.982439,710.168947 C701.077527,710.190947 702.022956,710.497947 701.999573,710.608947 C701.841353,711.361947 701.004262,711.469947 700.507776,711.531947 C700.265772,711.561556 700.023143,711.583161 699.780191,711.598233 Z" id="Combined-Shape" fill="#D7D7FF"></path>
                    <path d="M142.868312,285.052279 C141.343229,285.558108 141.992133,288.049268 143.538741,287.920753 C143.862877,287.893531 144.170553,287.752354 144.411122,287.536475 C144.469365,287.507353 144.528242,287.477599 144.582053,287.436449 C145.820986,286.478603 144.020513,284.6699 142.868312,285.052279" id="Fill-1" fill="#92CDFA"></path>
                    <path d="M179.868312,97.052279 C178.343229,97.5581079 178.992133,100.049268 180.538741,99.920753 C180.862877,99.8935306 181.170553,99.7523544 181.411122,99.536475 C181.469365,99.5073534 181.528242,99.4775987 181.582053,99.4364487 C182.820986,98.4786025 181.020513,96.6699002 179.868312,97.052279" id="Fill-1" fill="#C7EBFF"></path>
                    <path d="M0.868312428,365.052279 C-0.656771159,365.558108 -0.00786676842,368.049268 1.53874145,367.920753 C1.86287711,367.893531 2.17055275,367.752354 2.41112218,367.536475 C2.46936531,367.507353 2.52824151,367.477599 2.5820531,367.436449 C3.82098567,366.478603 2.02051339,364.6699 0.868312428,365.052279" id="Fill-1" fill="#92CDFA"></path>
                    <path d="M309.393512,3.16854721 C308.958512,3.08554721 308.507512,3.06654721 308.065512,3.06854721 C307.913512,3.06954721 307.760512,3.06854721 307.607512,3.06854721 C307.592512,2.68354721 307.568512,2.29854721 307.532512,1.91454721 C307.471512,1.27754721 307.363512,0.203547214 306.609512,0.000547214034 C306.497512,-0.029452786 306.191512,1.18354721 306.168512,1.30554721 C306.086512,1.73954721 306.067512,2.18954721 306.069512,2.63254721 C306.070512,2.78554721 306.070512,2.93954721 306.069512,3.09254721 C305.704512,3.10654721 305.338512,3.13154721 304.976512,3.18254721 C304.343512,3.27054721 303.206512,3.32254721 303.000512,4.08454721 C302.971512,4.19454721 304.182512,4.50154721 304.303512,4.52354721 C304.885512,4.63554721 305.495512,4.63154721 306.092512,4.62754721 C306.107512,4.99354721 306.131512,5.35854721 306.182512,5.72254721 C306.270512,6.35454721 306.323512,7.49154721 307.084512,7.69654721 C307.195512,7.72754721 307.501512,6.51654721 307.524512,6.39454721 C307.635512,5.81354721 307.631512,5.20354721 307.628512,4.60654721 C308.014512,4.59254721 308.399512,4.56754721 308.783512,4.53154721 C309.420512,4.47154721 310.494512,4.36154721 310.698512,3.60854721 C310.727512,3.49754721 309.515512,3.19054721 309.393512,3.16854721" id="Fill-6" fill="#71CEFC"></path>
                    <path d="M770.393512,213.168547 C769.958512,213.085547 769.507512,213.066547 769.065512,213.068547 C768.913512,213.069547 768.760512,213.068547 768.607512,213.068547 C768.592512,212.683547 768.568512,212.298547 768.532512,211.914547 C768.471512,211.277547 768.363512,210.203547 767.609512,210.000547 C767.497512,209.970547 767.191512,211.183547 767.168512,211.305547 C767.086512,211.739547 767.067512,212.189547 767.069512,212.632547 C767.070512,212.785547 767.070512,212.939547 767.069512,213.092547 C766.704512,213.106547 766.338512,213.131547 765.976512,213.182547 C765.343512,213.270547 764.206512,213.322547 764.000512,214.084547 C763.971512,214.194547 765.182512,214.501547 765.303512,214.523547 C765.885512,214.635547 766.495512,214.631547 767.092512,214.627547 C767.107512,214.993547 767.131512,215.358547 767.182512,215.722547 C767.270512,216.354547 767.323512,217.491547 768.084512,217.696547 C768.195512,217.727547 768.501512,216.516547 768.524512,216.394547 C768.635512,215.813547 768.631512,215.203547 768.628512,214.606547 C769.014512,214.592547 769.399512,214.567547 769.783512,214.531547 C770.420512,214.471547 771.494512,214.361547 771.698512,213.608547 C771.727512,213.497547 770.515512,213.190547 770.393512,213.168547" id="Fill-6" fill="#71CEFC"></path>
                    <path d="M936.868312,540.052279 C935.343229,540.558108 935.992133,543.049268 937.538741,542.920753 C937.862877,542.893531 938.170553,542.752354 938.411122,542.536475 C938.469365,542.507353 938.528242,542.477599 938.582053,542.436449 C939.820986,541.478603 938.020513,539.6699 936.868312,540.052279" id="Fill-1" fill="#C7EBFF"></path>
                    <path d="M11.8683124,75.052279 C10.3432288,75.5581079 10.9921332,78.0492677 12.5387415,77.920753 C12.8628771,77.8935306 13.1705528,77.7523544 13.4111222,77.536475 C13.4693653,77.5073534 13.5282415,77.4775987 13.5820531,77.4364487 C14.8209857,76.4786025 13.0205134,74.6699002 11.8683124,75.052279" id="Fill-1" fill="#92CDFA"></path>
                    <path d="M536.868312,540.052279 C535.343229,540.558108 535.992133,543.049268 537.538741,542.920753 C537.862877,542.893531 538.170553,542.752354 538.411122,542.536475 C538.469365,542.507353 538.528242,542.477599 538.582053,542.436449 C539.820986,541.478603 538.020513,539.6699 536.868312,540.052279" id="Fill-1" fill="#C7EBFF"></path>
                    <path d="M110.780191,492.598233 C110.781129,492.979033 110.770624,493.363973 110.6762,493.733007 C110.6532,493.823307 110.3462,494.719644 110.2362,494.696699 C109.4742,494.544966 109.4222,493.703401 109.3332,493.235618 C109.295114,493.034145 109.269725,492.831727 109.252858,492.628783 C108.838232,492.630439 108.418149,492.622401 108.016003,492.523947 C107.920915,492.501947 106.977045,492.194947 107.000427,492.084947 C107.160207,491.322947 108.04718,491.269947 108.539769,491.181947 C108.765906,491.141351 108.99311,491.115181 109.220901,491.09838 C109.220807,491.048391 109.220594,490.998433 109.2202,490.948514 C109.2182,490.620622 109.2372,490.287548 109.3202,489.966318 C109.3432,489.876018 109.6492,488.9782 109.7602,489.000405 C110.5132,489.150658 110.6222,489.945593 110.6832,490.417077 C110.71117,490.634169 110.731997,490.85179 110.746922,491.0697 C110.814047,491.069657 110.881129,491.069449 110.948157,491.068947 C111.292658,491.066947 111.643394,491.085947 111.982439,491.168947 C112.077527,491.190947 113.022956,491.497947 112.999573,491.608947 C112.841353,492.361947 112.004262,492.469947 111.507776,492.531947 C111.265772,492.561556 111.023143,492.583161 110.780191,492.598233 Z" id="Combined-Shape" fill="#D7D7FF"></path>
                    <path d="M1124.78019,400.598233 C1124.78113,400.979033 1124.77062,401.363973 1124.6762,401.733007 C1124.6532,401.823307 1124.3462,402.719644 1124.2362,402.696699 C1123.4742,402.544966 1123.4222,401.703401 1123.3332,401.235618 C1123.29511,401.034145 1123.26972,400.831727 1123.25286,400.628783 C1122.83823,400.630439 1122.41815,400.622401 1122.016,400.523947 C1121.92091,400.501947 1120.97704,400.194947 1121.00043,400.084947 C1121.16021,399.322947 1122.04718,399.269947 1122.53977,399.181947 C1122.76591,399.141351 1122.99311,399.115181 1123.2209,399.09838 C1123.22081,399.048391 1123.22059,398.998433 1123.2202,398.948514 C1123.2182,398.620622 1123.2372,398.287548 1123.3202,397.966318 C1123.3432,397.876018 1123.6492,396.9782 1123.7602,397.000405 C1124.5132,397.150658 1124.6222,397.945593 1124.6832,398.417077 C1124.71117,398.634169 1124.732,398.85179 1124.74692,399.0697 C1124.81405,399.069657 1124.88113,399.069449 1124.94816,399.068947 C1125.29266,399.066947 1125.64339,399.085947 1125.98244,399.168947 C1126.07753,399.190947 1127.02296,399.497947 1126.99957,399.608947 C1126.84135,400.361947 1126.00426,400.469947 1125.50778,400.531947 C1125.26577,400.561556 1125.02314,400.583161 1124.78019,400.598233 Z" id="Combined-Shape" fill="#D7D7FF"></path>
                    <path d="M1324.39351,229.168547 C1323.95851,229.085547 1323.50751,229.066547 1323.06551,229.068547 C1322.91351,229.069547 1322.76051,229.068547 1322.60751,229.068547 C1322.59251,228.683547 1322.56851,228.298547 1322.53251,227.914547 C1322.47151,227.277547 1322.36351,226.203547 1321.60951,226.000547 C1321.49751,225.970547 1321.19151,227.183547 1321.16851,227.305547 C1321.08651,227.739547 1321.06751,228.189547 1321.06951,228.632547 C1321.07051,228.785547 1321.07051,228.939547 1321.06951,229.092547 C1320.70451,229.106547 1320.33851,229.131547 1319.97651,229.182547 C1319.34351,229.270547 1318.20651,229.322547 1318.00051,230.084547 C1317.97151,230.194547 1319.18251,230.501547 1319.30351,230.523547 C1319.88551,230.635547 1320.49551,230.631547 1321.09251,230.627547 C1321.10751,230.993547 1321.13151,231.358547 1321.18251,231.722547 C1321.27051,232.354547 1321.32351,233.491547 1322.08451,233.696547 C1322.19551,233.727547 1322.50151,232.516547 1322.52451,232.394547 C1322.63551,231.813547 1322.63151,231.203547 1322.62851,230.606547 C1323.01451,230.592547 1323.39951,230.567547 1323.78351,230.531547 C1324.42051,230.471547 1325.49451,230.361547 1325.69851,229.608547 C1325.72751,229.497547 1324.51551,229.190547 1324.39351,229.168547" id="Fill-6" fill="#71CEFC"></path>
                </g>
            </g>
        </g>
    </g>
</svg>